<svg width="62" height="62" viewBox="0 0 62 62" fill="none" xmlns="http://www.w3.org/2000/svg">
<path d="M3.875 1.9375H48.4375V48.4375H3.875V1.9375Z" fill="#F4E5DF"/>
<path d="M3.875 1.9375H48.4375V9.6875H3.875V1.9375Z" fill="#EF6A6A"/>
<path d="M9.20312 7.26562H53.7656V53.7656H9.20312V7.26562Z" fill="#E8D7D1"/>
<path d="M9.20312 7.26562H53.7656V15.0156H9.20312V7.26562Z" fill="#F9CA48"/>
<path d="M14.5312 12.5938H59.0938V59.0938H14.5312V12.5938Z" fill="#F4E5DF"/>
<path d="M14.5312 12.5938H59.0938V20.3438H14.5312V12.5938Z" fill="#66BECC"/>
<path d="M17.4375 15.5H19.375V17.4375H17.4375V15.5Z" fill="#4F4459"/>
<path d="M21.3125 15.5H23.25V17.4375H21.3125V15.5Z" fill="#4F4459"/>
<path d="M25.1875 15.5H27.125V17.4375H25.1875V15.5Z" fill="#4F4459"/>
<path d="M37.7812 15.5H56.1875V17.4375H37.7812V15.5Z" fill="#4F4459"/>
<path d="M36.8125 42.625C41.6277 42.625 45.5312 38.7215 45.5312 33.9062C45.5312 29.091 41.6277 25.1875 36.8125 25.1875C31.9973 25.1875 28.0938 29.091 28.0938 33.9062C28.0938 38.7215 31.9973 42.625 36.8125 42.625Z" fill="#EF6A6A"/>
<path d="M24.2188 50.375H34.875V52.3125H24.2188V50.375Z" fill="#4F4459"/>
<path d="M38.75 50.375H49.4062V52.3125H38.75V50.375Z" fill="#4F4459"/>
<path d="M33.9062 37.7812V30.0312L41.6562 33.9062L33.9062 37.7812Z" fill="#F4E5DF"/>
<path d="M22.2812 54.25C23.8863 54.25 25.1875 52.9488 25.1875 51.3438C25.1875 49.7387 23.8863 48.4375 22.2812 48.4375C20.6762 48.4375 19.375 49.7387 19.375 51.3438C19.375 52.9488 20.6762 54.25 22.2812 54.25Z" fill="#66BECC"/>
<path d="M36.8125 54.25C38.4176 54.25 39.7188 52.9488 39.7188 51.3438C39.7188 49.7387 38.4176 48.4375 36.8125 48.4375C35.2074 48.4375 33.9062 49.7387 33.9062 51.3438C33.9062 52.9488 35.2074 54.25 36.8125 54.25Z" fill="#66BECC"/>
<path d="M51.3438 54.25C52.9488 54.25 54.25 52.9488 54.25 51.3438C54.25 49.7387 52.9488 48.4375 51.3438 48.4375C49.7387 48.4375 48.4375 49.7387 48.4375 51.3438C48.4375 52.9488 49.7387 54.25 51.3438 54.25Z" fill="#66BECC"/>
<path d="M49.4062 25.1875H56.1875V27.125H49.4062V25.1875Z" fill="#4F4459"/>
<path d="M49.4062 29.0625H56.1875V31H49.4062V29.0625Z" fill="#4F4459"/>
<path d="M49.4062 32.9375H56.1875V34.875H49.4062V32.9375Z" fill="#4F4459"/>
</svg>
