<svg width="64" height="64" viewBox="0 0 64 64" fill="none" xmlns="http://www.w3.org/2000/svg">
<path d="M60.0116 35.3994H50.8845C50.3653 35.3994 49.9443 35.8203 49.9443 36.3395V63.027C49.9443 63.5462 50.3652 63.9672 50.8845 63.9672H60.0116C60.5307 63.9672 60.9517 63.5463 60.9517 63.027V36.3395C60.9516 35.8203 60.5307 35.3994 60.0116 35.3994Z" fill="#A0A0A0"/>
<path d="M54.6447 35.3994H50.8845C50.3653 35.3994 49.9443 35.8203 49.9443 36.3395V63.027C49.9443 63.5462 50.3652 63.9672 50.8845 63.9672H54.6447V35.3994Z" fill="#878787"/>
<path d="M63.0598 30.3516H50.8845C50.3653 30.3516 49.9443 30.7724 49.9443 31.2917V36.3398C49.9443 36.8589 50.3652 37.2799 50.8845 37.2799H63.0598C63.579 37.2799 64 36.8591 64 36.3398V31.2917C64 30.7726 63.5791 30.3516 63.0598 30.3516Z" fill="#565656"/>
<path d="M54.6447 30.3516H50.8845C50.3653 30.3516 49.9443 30.7724 49.9443 31.2917V36.3398C49.9443 36.8589 50.3652 37.2799 50.8845 37.2799H54.6447V30.3516Z" fill="#494949"/>
<path d="M13.1154 35.3994H3.98798C3.46885 35.3994 3.04785 35.8203 3.04785 36.3395V63.027C3.04785 63.5462 3.46873 63.9672 3.98798 63.9672H13.1151C13.6342 63.9672 14.0552 63.5463 14.0552 63.027V36.3395C14.0554 35.8203 13.6345 35.3994 13.1154 35.3994Z" fill="#A0A0A0"/>
<path d="M13.1158 35.3994H9.35547V63.967H13.1157C13.6348 63.967 14.0558 63.5462 14.0558 63.0269V36.3394C14.0558 35.8203 13.635 35.3994 13.1158 35.3994Z" fill="#878787"/>
<path d="M13.1155 30.3516H0.940125C0.421 30.3516 0 30.7724 0 31.2917V36.3398C0 36.8589 0.420875 37.2799 0.940125 37.2799H13.1155C13.6346 37.2799 14.0556 36.8591 14.0556 36.3398V31.2917C14.0555 30.7726 13.6346 30.3516 13.1155 30.3516Z" fill="#565656"/>
<path d="M13.1158 30.3516H9.35547V37.2798H13.1157C13.6348 37.2798 14.0558 36.8589 14.0558 36.3397V31.2916C14.0558 30.7726 13.635 30.3516 13.1158 30.3516Z" fill="#494949"/>
<path d="M50.8849 16.5732H40.2218C39.9268 16.5732 39.6487 16.7117 39.4712 16.9474C37.6777 19.3267 34.9432 20.6914 31.9689 20.6914C28.9947 20.6914 26.2602 19.3267 24.4667 16.9474C24.289 16.7117 24.011 16.5732 23.716 16.5732H13.1159C12.5968 16.5732 12.1758 16.9941 12.1758 17.5134V63.027C12.1758 63.5461 12.5967 63.9671 13.1159 63.9671H50.8852C51.4043 63.9671 51.8253 63.5462 51.8253 63.027V17.5134C51.825 16.9942 51.4042 16.5732 50.8849 16.5732Z" fill="#F9F1EF"/>
<path d="M50.884 16.5732H47.249V63.967H50.884C51.4031 63.967 51.8241 63.5461 51.8241 63.0269V17.5134C51.8241 16.9942 51.4033 16.5732 50.884 16.5732Z" fill="#DDDBDB"/>
<path d="M22.6407 12.3608C22.5875 11.8851 22.1852 11.5254 21.7066 11.5254H9.65985C9.14073 11.5254 8.71973 11.9463 8.71973 12.4655V17.5136C8.71973 18.0328 9.1406 18.4538 9.65985 18.4538H23.7161C24.0726 18.4538 24.3984 18.2523 24.5574 17.9331C24.7164 17.6141 24.6814 17.2326 24.4667 16.9478C23.4587 15.6103 22.8272 14.0241 22.6407 12.3608Z" fill="#565656"/>
<path d="M54.3414 11.5254H42.2316C41.753 11.5254 41.3507 11.8851 41.2975 12.3608C41.111 14.0241 40.4796 15.6104 39.4716 16.9478C39.257 17.2324 39.222 17.614 39.381 17.9331C39.5401 18.2521 39.8659 18.4538 40.2222 18.4538H54.3415C54.8606 18.4538 55.2816 18.0329 55.2816 17.5136V12.4654C55.2815 11.9463 54.8606 11.5254 54.3414 11.5254Z" fill="#565656"/>
<path d="M24.9979 35.2441H19.7429C19.2237 35.2441 18.8027 35.665 18.8027 36.1843V41.4393C18.8027 41.9584 19.2236 42.3794 19.7429 42.3794H24.9979C25.517 42.3794 25.938 41.9585 25.938 41.4393V36.1843C25.938 35.665 25.517 35.2441 24.9979 35.2441Z" fill="#00C1EC"/>
<path d="M34.627 35.2441H29.372C28.8529 35.2441 28.4319 35.665 28.4319 36.1843V41.4393C28.4319 41.9584 28.8528 42.3794 29.372 42.3794H34.627C35.1461 42.3794 35.5671 41.9585 35.5671 41.4393V36.1843C35.5671 35.665 35.1461 35.2441 34.627 35.2441Z" fill="#00C1EC"/>
<path d="M44.2564 35.2441H39.0014C38.4823 35.2441 38.0613 35.665 38.0613 36.1843V41.4393C38.0613 41.9584 38.4822 42.3794 39.0014 42.3794H44.2564C44.7755 42.3794 45.1965 41.9585 45.1965 41.4393V36.1843C45.1965 35.665 44.7757 35.2441 44.2564 35.2441Z" fill="#00C1EC"/>
<path d="M24.9979 26.1475H19.7429C19.2237 26.1475 18.8027 26.5683 18.8027 27.0876V32.3426C18.8027 32.8617 19.2236 33.2827 19.7429 33.2827H24.9979C25.517 33.2827 25.938 32.8618 25.938 32.3426V27.0876C25.938 26.5683 25.517 26.1475 24.9979 26.1475Z" fill="#00C1EC"/>
<path d="M34.627 26.1475H29.372C28.8529 26.1475 28.4319 26.5683 28.4319 27.0876V32.3426C28.4319 32.8617 28.8528 33.2827 29.372 33.2827H34.627C35.1461 33.2827 35.5671 32.8618 35.5671 32.3426V27.0876C35.5671 26.5683 35.1461 26.1475 34.627 26.1475Z" fill="#00C1EC"/>
<path d="M44.2564 26.1475H39.0014C38.4823 26.1475 38.0613 26.5683 38.0613 27.0876V32.3426C38.0613 32.8617 38.4822 33.2827 39.0014 33.2827H44.2564C44.7755 33.2827 45.1965 32.8618 45.1965 32.3426V27.0876C45.1965 26.5683 44.7757 26.1475 44.2564 26.1475Z" fill="#00C1EC"/>
<path d="M42.9062 50.5244H31.9997C31.4806 50.5244 31.0596 50.9453 31.0596 51.4645V63.0275C31.0596 63.5467 31.4804 63.9677 31.9997 63.9677H42.9062C43.4253 63.9677 43.8463 63.5468 43.8463 63.0275V51.4645C43.8462 50.9453 43.4254 50.5244 42.9062 50.5244Z" fill="#00C1EC"/>
<path d="M42.9067 50.5244H39.5225V63.9677H42.9067C43.4258 63.9677 43.8468 63.5468 43.8468 63.0275V51.4645C43.8467 50.9453 43.426 50.5244 42.9067 50.5244Z" fill="#00AADE"/>
<path d="M31.9999 50.5244H21.0934C20.5743 50.5244 20.1533 50.9453 20.1533 51.4645V63.0275C20.1533 63.5467 20.5742 63.9677 21.0934 63.9677H31.9999C32.5191 63.9677 32.9401 63.5468 32.9401 63.0275V51.4645C32.9401 50.9453 32.5192 50.5244 31.9999 50.5244Z" fill="#00C1EC"/>
<path d="M32.9406 50.5234H28.6162V63.9666H32.9406V50.5234Z" fill="#00AADE"/>
<path d="M31.9686 0.0332031C25.7547 0.0332031 20.6992 5.0887 20.6992 11.3026C20.6992 17.5165 25.7547 22.572 31.9686 22.572C38.1826 22.572 43.238 17.5166 43.238 11.3026C43.238 5.08858 38.1826 0.0332031 31.9686 0.0332031Z" fill="#EF3A47"/>
<path d="M31.9687 0.0332031C31.1617 0.0332031 30.3746 0.119203 29.6152 0.281078C34.7034 1.36645 38.5311 5.89545 38.5311 11.3026C38.5311 16.7097 34.7031 21.2387 29.6152 22.3241C30.3746 22.4861 31.1617 22.572 31.9687 22.572C38.1827 22.572 43.2381 17.5166 43.2381 11.3026C43.2381 5.08858 38.1827 0.0332031 31.9687 0.0332031Z" fill="#CE3043"/>
<path d="M36.038 9.52533H33.7461V7.23333C33.7461 6.8812 33.4607 6.5957 33.1085 6.5957H30.8288C30.4767 6.5957 30.1912 6.88108 30.1912 7.23333V9.5252H27.8993C27.5472 9.5252 27.2617 9.81058 27.2617 10.1628V12.4425C27.2617 12.7946 27.5471 13.0801 27.8993 13.0801H30.1912V15.372C30.1912 15.7241 30.4766 16.0096 30.8288 16.0096H33.1085C33.4606 16.0096 33.7461 15.7242 33.7461 15.372V13.0801H36.038C36.3901 13.0801 36.6755 12.7947 36.6755 12.4425V10.1628C36.6755 9.8107 36.3901 9.52533 36.038 9.52533Z" fill="#F9F1EF"/>
<path d="M45.1069 46.4355H18.8932C18.3741 46.4355 17.9531 46.8564 17.9531 47.3757V51.4578C17.9531 51.9769 18.374 52.3979 18.8932 52.3979H45.1069C45.626 52.3979 46.047 51.977 46.047 51.4578V47.3757C46.0469 46.8564 45.626 46.4355 45.1069 46.4355Z" fill="#565656"/>
</svg>
