<svg width="64" height="65" viewBox="0 0 64 65" fill="none" xmlns="http://www.w3.org/2000/svg">
<path d="M48.022 3.66016H8.62695V59.7197H48.022V3.66016Z" fill="#FDFEFF"/>
<path d="M44.6179 8.94336H19.4629V9.94442H44.6179V8.94336Z" fill="#D2D2D4"/>
<path d="M44.6179 11.6123H19.4629V12.6134H44.6179V11.6123Z" fill="#D2D2D4"/>
<path d="M44.6179 17.5576H19.4629V18.5587H44.6179V17.5576Z" fill="#D2D2D4"/>
<path d="M44.6179 20.2266H19.4629V21.2276H44.6179V20.2266Z" fill="#D2D2D4"/>
<path d="M44.6179 26.1729H19.4629V27.1739H44.6179V26.1729Z" fill="#D2D2D4"/>
<path d="M44.6179 28.8418H19.4629V29.8429H44.6179V28.8418Z" fill="#D2D2D4"/>
<path d="M44.6179 34.7871H19.4629V35.7882H44.6179V34.7871Z" fill="#D2D2D4"/>
<path d="M44.6179 37.4561H19.4629V38.4571H44.6179V37.4561Z" fill="#D2D2D4"/>
<path d="M44.6179 43.4014H19.4629V44.4024H44.6179V43.4014Z" fill="#D2D2D4"/>
<path d="M44.6179 46.0684H19.4629V47.0694H44.6179V46.0684Z" fill="#D2D2D4"/>
<path d="M16.6448 8.46777H12.0293V13.0882H16.6448V8.46777Z" fill="#70B1E1"/>
<path d="M16.6448 17.082H12.0293V21.7024H16.6448V17.082Z" fill="#70B1E1"/>
<path d="M16.6448 25.6973H12.0293V30.3177H16.6448V25.6973Z" fill="#70B1E1"/>
<path d="M16.6448 34.3115H12.0293V38.9319H16.6448V34.3115Z" fill="#70B1E1"/>
<path d="M16.6448 42.9258H12.0293V47.5462H16.6448V42.9258Z" fill="#70B1E1"/>
<path d="M44.19 61.8791C50.3667 61.8791 55.374 56.8665 55.374 50.6832C55.374 44.4999 50.3667 39.4873 44.19 39.4873C38.0132 39.4873 33.006 44.4999 33.006 50.6832C33.006 56.8665 38.0132 61.8791 44.19 61.8791Z" fill="#D64331"/>
<path d="M44.1894 59.7721C49.2041 59.7721 53.2694 55.7025 53.2694 50.6824C53.2694 45.6623 49.2041 41.5928 44.1894 41.5928C39.1746 41.5928 35.1094 45.6623 35.1094 50.6824C35.1094 55.7025 39.1746 59.7721 44.1894 59.7721Z" fill="#F1592F"/>
<path d="M42.87 54.8803L38.4355 50.4411L39.749 49.1257L42.87 52.2495L48.6275 46.4854L49.9415 47.8007L42.87 54.8803Z" fill="#FDFEFF"/>
</svg>
