<svg width="64" height="64" viewBox="0 0 64 64" fill="none" xmlns="http://www.w3.org/2000/svg">
<g clip-path="url(#clip0_483_12786)">
<path d="M20.625 64.001H1.87503C1.14078 64.001 0.474032 63.5723 0.169282 62.9045C-0.135593 62.2365 -0.0224679 61.4521 0.458657 60.8974L4.50091 56.2375C1.58741 52.5926 3.2114e-05 48.0865 3.2114e-05 43.376C3.2114e-05 32.0034 9.25241 22.751 20.625 22.751C31.9977 22.751 41.25 32.0034 41.25 43.376C41.25 54.7486 31.9978 64.001 20.625 64.001Z" fill="#BEEBFA"/>
<path d="M20.625 22.751V64.001C31.9976 64.001 41.25 54.7486 41.25 43.376C41.25 32.0034 31.9978 22.751 20.625 22.751Z" fill="#9EE2F8"/>
<path d="M26.875 41.501H14.375C13.3395 41.501 12.5 40.6615 12.5 39.626C12.5 38.5905 13.3395 37.751 14.375 37.751H26.875C27.9105 37.751 28.75 38.5905 28.75 39.626C28.75 40.6615 27.9105 41.501 26.875 41.501Z" fill="#9EE2F8"/>
<path d="M26.875 49.001H14.375C13.3395 49.001 12.5 48.1615 12.5 47.126C12.5 46.0905 13.3395 45.251 14.375 45.251H26.875C27.9105 45.251 28.75 46.0905 28.75 47.126C28.75 48.1615 27.9105 49.001 26.875 49.001Z" fill="#9EE2F8"/>
<path d="M26.875 45.251H20.625V49.001H26.875C27.9105 49.001 28.75 48.1615 28.75 47.126C28.75 46.0905 27.9105 45.251 26.875 45.251Z" fill="#87C0ED"/>
<path d="M26.875 37.751H20.625V41.501H26.875C27.9105 41.501 28.75 40.6615 28.75 39.626C28.75 38.5905 27.9105 37.751 26.875 37.751Z" fill="#87C0ED"/>
<path d="M62.125 41.251H43.375C32.0024 41.251 22.75 31.9986 22.75 20.626C22.75 9.25335 32.0022 0.000976562 43.375 0.000976562C54.7477 0.000976562 64 9.25335 64 20.626C64 25.3365 62.4126 29.8426 59.4991 33.4875L63.5414 38.1474C64.0225 38.7021 64.1356 39.4865 63.8307 40.1545C63.5259 40.8223 62.8592 41.251 62.125 41.251Z" fill="#999FED"/>
<path d="M63.5414 38.1474L59.4991 33.4875C62.4126 29.8426 64 25.3365 64 20.626C64 9.25335 54.7476 0.000976562 43.375 0.000976562V41.251H62.125C62.8592 41.251 63.526 40.8223 63.8307 40.1545C64.1356 39.4865 64.0225 38.702 63.5414 38.1474Z" fill="#7C84E8"/>
<path d="M43.375 33.376C44.4105 33.376 45.25 32.5365 45.25 31.501C45.25 30.4654 44.4105 29.626 43.375 29.626C42.3395 29.626 41.5 30.4654 41.5 31.501C41.5 32.5365 42.3395 33.376 43.375 33.376Z" fill="#FFF79F"/>
<path d="M43.375 27.6993C42.3395 27.6993 41.5 26.8598 41.5 25.8243V20.2629C41.5 19.2274 42.3395 18.3879 43.375 18.3879C44.3279 18.3879 45.2146 18.0065 45.8721 17.3141C46.5289 16.6224 46.8633 15.7149 46.8136 14.7588C46.7208 12.9686 45.2419 11.5379 43.447 11.5018C43.4235 11.5013 43.4 11.501 43.3765 11.501C41.6621 11.501 40.202 12.7624 39.9649 14.4619C39.9428 14.6201 39.9316 14.7825 39.9316 14.9445C39.9316 15.98 39.0921 16.8195 38.0566 16.8195C37.0211 16.8195 36.1816 15.98 36.1816 14.9445C36.1816 14.6098 36.205 14.2731 36.2509 13.9436C36.7536 10.3408 39.8839 7.67788 43.5225 7.75251C47.2736 7.82813 50.3643 10.8203 50.5586 14.5644C50.6621 16.5576 49.9635 18.4513 48.5916 19.8961C47.678 20.8584 46.5141 21.5435 45.2501 21.8868V25.8243C45.25 26.8598 44.4105 27.6993 43.375 27.6993Z" fill="#FFF79F"/>
<path d="M43.375 29.626V33.376C44.4105 33.376 45.25 32.5365 45.25 31.501C45.25 30.4655 44.4105 29.626 43.375 29.626Z" fill="#FFDE55"/>
<path d="M50.5586 14.5642C50.3642 10.8201 47.2736 7.82794 43.5225 7.75232C43.4731 7.75132 43.4242 7.75269 43.375 7.75269V11.5008H43.3765C43.4 11.5008 43.4234 11.5011 43.447 11.5016C45.2419 11.5377 46.7208 12.9683 46.8136 14.7586C46.8633 15.7147 46.5289 16.6222 45.8721 17.3139C45.2147 18.0063 44.328 18.3877 43.375 18.3877V27.6991C44.4105 27.6991 45.25 26.8596 45.25 25.8241V21.8866C46.514 21.5433 47.678 20.8582 48.5915 19.8959C49.9635 18.4511 50.662 16.5574 50.5586 14.5642Z" fill="#FFDE55"/>
</g>
<defs>
<clipPath id="clip0_483_12786">
<rect width="64" height="64" fill="white" transform="translate(0 0.000976562)"/>
</clipPath>
</defs>
</svg>
