<svg width="64" height="64" viewBox="0 0 64 64" fill="none" xmlns="http://www.w3.org/2000/svg">
<path d="M17.1035 35.3105L7.17236 59.5864L14.8965 57.3794L18.2069 64.0002L28.1379 40.8278L17.1035 35.3105Z" fill="#DE4C3C"/>
<path d="M41.3792 34.207L30.3448 40.8278L40.2758 64.0002L43.5862 57.3794L51.3103 59.5864L41.3792 34.207Z" fill="#DE4C3C"/>
<path d="M17.1035 35.3105L13.451 44.2374L13.6387 44.2925L16 51.6194L23.5255 50.0084L24.011 50.4498L28.1379 40.8278L17.1035 35.3105Z" fill="#C74436"/>
<path d="M30.345 40.8278L34.4718 50.4498L34.9573 50.0084L42.4828 51.6194L44.8442 44.2925L45.2746 44.1602L41.3793 34.207L30.345 40.8278Z" fill="#C74436"/>
<path d="M29.2414 0L34.9573 5.16412L42.4828 3.54212L44.8442 10.88L52.171 13.2414L50.56 20.7669L55.7242 26.4827L50.56 32.1986L52.171 39.7241L44.8442 42.0855L42.4828 49.4124L34.9573 47.8014L29.2414 52.9655L23.5255 47.8014L16 49.4124L13.6387 42.0855L6.30079 39.7241L7.92279 32.1986L2.75867 26.4827L7.92279 20.7669L6.30079 13.2414L13.6387 10.88L16 3.54212L23.5255 5.16412L29.2414 0Z" fill="#FDB62F"/>
<path d="M56.8277 8.8275C56.4526 6.56325 54.6782 4.78888 52.4139 4.41375C54.6782 4.03863 56.4526 2.26425 56.8277 0C57.2028 2.26425 58.9772 4.03863 61.2414 4.41375C58.9772 4.78888 57.2028 6.56313 56.8277 8.8275Z" fill="#FDB62F"/>
<path d="M55.7241 26.4826L50.56 20.7667L52.171 13.2412L46.4663 11.3984C40.2759 28.4908 25.567 38.1571 14.0359 43.3102L16 49.4122L23.5255 47.8012L29.2414 52.9653L34.9573 47.8012L42.4828 49.4122L44.8441 42.0853L52.171 39.7239L50.56 32.1984L55.7241 26.4826Z" fill="#FFA83D"/>
<path d="M22.6208 24.2757C20.1833 24.2757 18.207 22.2995 18.207 19.862C18.207 17.4245 20.1833 15.4482 22.6208 15.4482C25.0583 15.4482 27.0345 17.4245 27.0345 19.862C27.0345 22.2995 25.0583 24.2757 22.6208 24.2757ZM22.6208 17.655C21.4015 17.655 20.4139 18.6426 20.4139 19.8619C20.4139 21.0811 21.4015 22.0687 22.6208 22.0687C23.84 22.0687 24.8277 21.0811 24.8277 19.8619C24.8277 18.6426 23.84 17.655 22.6208 17.655Z" fill="white"/>
<path d="M36.9655 38.6205C34.528 38.6205 32.5518 36.6442 32.5518 34.2067C32.5518 31.7692 34.528 29.793 36.9655 29.793C39.403 29.793 41.3793 31.7692 41.3793 34.2067C41.3793 36.6441 39.403 38.6205 36.9655 38.6205ZM36.9655 31.9997C35.7463 31.9997 34.7586 32.9873 34.7586 34.2066C34.7586 35.4258 35.7463 36.4135 36.9655 36.4135C38.1848 36.4135 39.1724 35.4258 39.1724 34.2066C39.1724 32.9873 38.1849 31.9997 36.9655 31.9997Z" fill="white"/>
<path d="M22.293 34.9898L37.7418 19.541L36.1813 17.9805L20.7325 33.4293L22.293 34.9898Z" fill="white"/>
</svg>
